# xmcd
#
# Track frame offsets:
#	150
#	16453
#	30106
#	46412
#	61207
#	76900
#	92648
#	108063
#	121103
#	134609
#	153701
#	171471
#	184669
#	203873
#	220907
#	237628
#	250067
#	267514
#
# Disc length: 3806 seconds
#
# Revision: 1
# Processed by: cddbd v1.5.2PL0 Copyright (c) Steve Scherf et al.
# Submitted via: audiograbber 1.83.01
#
DISCID=f60edc12
DTITLE=Various Artist - Schwing- und Älplerhits 2016 CD1 4305
DYEAR=1900
DGENRE=
TTITLE0=Bligg - Legände and Heldä
TTITLE1=Gustav - Tous Ensemble
TTITLE2=Volxrox - Kampf Ume Thron
TTITLE3=Trauffer - Hoselupf
TTITLE4=Alvaro Soler - Sofia
TTITLE5=77 Bombay Street - Club Of Optimistic People
TTITLE6=Mark Forster - Wir Sind Gross
TTITLE7=Kunz - Mund Art Folk
TTITLE8=Zucchero - Partigiano Reggiano
TTITLE9=Gotthard - Feel What I Feel
TTITLE10=Sunrise Avenue - Livesaver
TTITLE11=Baschi - Oh Wie Schad
TTITLE12=Shakira - Hello
TTITLE13=Krokus - Dirty Dynamite
TTITLE14=Bosshoss - Dos Bros
TTITLE15=3 Doors Down - The Broken
TTITLE16=Nickelback - Get 'Em Up
TTITLE17=Heinz - Gstrandeti Ängle
EXTD=
EXTT0=
EXTT1=
EXTT2=
EXTT3=
EXTT4=
EXTT5=
EXTT6=
EXTT7=
EXTT8=
EXTT9=
EXTT10=
EXTT11=
EXTT12=
EXTT13=
EXTT14=
EXTT15=
EXTT16=
EXTT17=
PLAYORDER=
